# Wavefront OBJ exported by MilkShape 3D

mtllib spikebomb.mtl

v 0.000009 2.047181 3.650370
v -1.492851 1.869539 3.240563
v 0.000009 2.200433 3.648328
v 1.492851 1.869539 3.240563
v 1.559121 1.576265 3.628271
v 0.000007 1.587425 4.191151
v 2.154939 1.352282 -3.094509
v 1.166244 1.922671 -4.018877
v 1.244154 0.561300 -3.094509
v -0.000000 1.412558 -4.018876
v 0.000000 0.271781 -3.094509
v -1.244155 0.561300 -3.094509
v -1.166245 1.922671 -4.018877
v -2.154939 1.352282 -3.094509
v -2.488309 2.432783 -3.094510
v -1.166245 3.019119 -4.018877
v -2.154939 3.674739 -3.094510
v -3.251133 2.432784 -1.664674
v -2.815563 0.930929 -1.664673
v -1.625566 -0.168504 -1.664673
v 0.000000 -0.570925 -1.664672
v 1.625566 -0.168504 -1.664673
v 2.815563 0.930929 -1.664674
v 3.251133 2.432784 -1.664674
v 2.488309 2.432783 -3.094510
v 1.166244 3.019119 -4.018877
v 2.154939 3.674739 -3.094510
v 1.244154 4.583914 -3.094510
v -0.000000 3.605456 -4.018878
v -0.000000 4.916696 -3.094510
v -1.244155 4.583914 -3.094510
v -2.815563 4.159053 -1.664675
v -3.519001 2.432784 -0.152554
v -3.047544 0.790933 -0.152553
v -1.759501 -0.410987 -0.152553
v 0.000001 -0.850919 -0.152552
v 1.759501 -0.410987 -0.152553
v 3.047544 0.790933 -0.152554
v 3.519001 2.432784 -0.152554
v 3.047544 4.319970 -0.152555
v 2.815563 4.159053 -1.664675
v 1.625566 5.422770 -1.664675
v 0.000000 5.885323 -1.664675
v -1.625566 5.422770 -1.664675
v -3.047544 4.319970 -0.152555
v -2.702942 4.158364 1.334140
v -1.759501 5.701486 -0.152555
v 0.000001 6.207156 -0.152555
v 1.759501 5.701486 -0.152555
v 2.702942 4.158364 1.334140
v 3.121088 2.432785 1.334140
v 2.702941 0.931531 1.334140
v 1.095066 -0.156421 1.334140
v 0.000000 -0.607251 1.334140
v -1.095066 -0.156421 1.334140
v -2.702941 0.931531 1.334140
v -3.121088 2.432785 1.334140
v -2.231920 3.613208 2.015179
v -1.560544 5.421575 1.334140
v 0.000001 5.883942 1.334140
v 1.560544 5.421575 1.334140
v 2.231920 3.613208 2.015178
v 2.202240 2.793721 2.433166
v 2.615937 2.179376 2.295288
v 2.457936 1.565034 2.261100
v 1.724096 0.868272 2.393926
v 0.862049 0.493652 2.601250
v 0.000001 0.363634 2.808574
v -0.862049 0.493652 2.601250
v -1.724096 0.868272 2.393927
v -2.457935 1.565034 2.261100
v -2.615937 2.179376 2.295288
v -2.202240 2.793721 2.433166
v -1.168195 3.553965 2.750249
v 0.000024 4.820992 2.694180
v 0.000019 3.847904 3.053721
v 1.168195 3.553965 2.750249
v 0.000027 5.541616 2.144233
v -0.000000 2.476950 -4.479341
v 0.000002 0.457862 3.394893
v -1.534631 0.841307 3.339738
v -2.056462 1.203171 2.999310
v -2.185899 1.717287 2.893756
v -1.555339 2.573321 3.766808
v -1.699956 3.173907 3.788476
v 0.000019 3.956613 3.761801
v 1.699956 3.173907 3.788476
v 1.555340 2.573321 3.766808
v 2.185899 1.717287 2.893756
v 2.056462 1.203171 2.999310
v 1.534631 0.841307 3.339738
v 0.000004 0.898950 4.196383
v -1.559121 1.576265 3.628271
v 0.000015 3.016560 4.538531
v 0.000018 3.717665 4.304377
v 3.542525 2.589216 -1.381297
v 3.595496 1.632953 -1.263722
v 3.948105 2.644617 -0.582348
v 3.562329 2.080225 -0.054054
v 3.309771 2.570433 0.406443
v 3.462943 3.309252 -0.068967
v 3.489553 3.545480 -1.310920
v -0.000007 1.198042 -5.731803
v -0.000003 0.415147 -6.265038
v 0.303992 1.430939 -3.563237
v -0.000000 -0.106782 -5.731803
v -0.304008 1.430936 -3.563237
v -0.000011 1.980937 -6.265038
v -0.304014 2.530936 -3.563237
v -0.000015 2.763831 -5.731804
v -0.000019 3.546726 -6.265039
v -0.000022 4.068655 -5.731804
v 0.303987 2.530939 -3.563238
v -3.562329 2.080225 -0.054054
v -3.595496 1.632953 -1.263722
v -3.948105 2.644617 -0.582348
v -3.542525 2.589216 -1.381297
v -3.489553 3.545480 -1.310919
v -3.462943 3.309252 -0.068967
v -3.309771 2.570433 0.406443
v 6.327230 1.814518 1.548894
v -0.054810 1.282864 0.224862
v 0.045283 3.691603 0.674238
v 0.467017 3.230010 -1.171669
v 0.205445 3.691322 0.674239
v 0.297092 1.282247 0.224866
v -6.084115 1.836302 1.548760
v -0.217867 3.231213 -1.171677
v 3.286703 3.182828 -5.531103
v 1.088112 2.366331 0.572717
v -0.926292 3.333941 -0.437176
v -0.803382 1.400998 -0.653808
v 1.175782 3.330251 -0.437153
v -0.842028 2.369718 0.572696
v -3.038650 3.193931 -5.531171
v 1.046092 1.397752 -0.653788
v 0.936438 3.147702 -0.007905
v 5.447958 -0.251474 0.003685
v -0.657649 1.561205 0.969794
v -4.409076 6.909893 -0.015033
v -0.657635 1.557216 -0.979126
v 0.900895 1.556475 -0.004649
v -5.219990 -0.235471 0.003586
v -0.687606 3.152546 0.966537
v 4.670046 6.893958 -0.014936
v -0.687592 3.148559 -0.982383
v -0.492945 2.966369 -0.625298
v -0.760257 1.835397 0.103859
v 1.662329 -0.726616 -4.232424
v 0.861528 2.399383 0.282508
v -1.428037 -0.721192 -4.232456
v 1.006796 1.832296 0.103878
v 0.743473 2.964199 -0.625285
v -0.613003 2.401972 0.282491
v 0.507995 3.720899 -0.165164
v 0.284436 1.583874 0.660206
v -4.673703 3.967551 2.851290
v -0.495458 2.629241 -1.236389
v -0.931347 2.694765 0.854440
v -0.932320 2.130399 -0.885576
v 0.132224 7.881905 -1.795935
v 1.180401 2.408874 -0.015545
v 1.819080 5.810205 -4.657245
v -1.054224 3.121968 0.144236
v -0.698030 1.620816 -0.838535
v 1.108719 2.369387 0.375299
v 0.132121 7.845499 1.898713
v 1.180322 2.363597 -0.015022
v -0.932449 2.067220 0.848952
v -0.931378 2.667388 -0.879042
v 4.939228 0.750339 -2.874883
v 4.924281 3.950706 2.851393
v -0.038784 1.584441 0.660202
v -0.254822 3.722239 -0.165172
v 0.744816 2.627064 -1.236376
v 1.305278 3.117827 0.144261
v -0.860299 2.372843 0.375278
v -1.561831 5.816137 -4.657279
v 0.943838 1.617934 -0.838517
v 0.125051 3.775757 -4.876513
v -0.930349 3.260562 0.268604
v -0.933426 1.503778 -0.241170
v 1.180348 2.378463 0.013739
v -4.699760 0.767257 -2.874988
# 184 vertices

vt 0.757813 0.898438
vt 0.730469 0.796875
vt 0.742188 0.898438
vt 0.085938 0.203125
vt 0.132813 0.203125
vt 0.132813 0.359375
vt 0.089138 0.359375
vt 0.736930 0.219076
vt 0.804349 0.398137
vt 0.736930 0.323114
vt 0.804349 0.331042
vt 0.736930 0.180996
vt 0.736930 0.465231
vt 0.804349 0.542352
vt 0.736930 0.628585
vt 0.632645 0.465232
vt 0.632645 0.267693
vt 0.632645 0.123085
vt 0.632645 0.070155
vt 0.736930 0.748169
vt 0.804350 0.619472
vt 0.736930 0.791939
vt 0.632645 0.692287
vt 0.522358 0.465232
vt 0.522358 0.249280
vt 0.522357 0.091192
vt 0.522357 0.033328
vt 0.522358 0.713452
vt 0.632645 0.858503
vt 0.632645 0.919342
vt 0.414063 0.664063
vt 0.522358 0.895162
vt 0.522358 0.961673
vt 0.413925 0.465232
vt 0.413925 0.267773
vt 0.415063 0.124675
vt 0.415063 0.065377
vt 0.367188 0.617188
vt 0.414063 0.828125
vt 0.413925 0.919161
vt 0.343750 0.484375
vt 0.345033 0.417736
vt 0.346317 0.351097
vt 0.336629 0.259452
vt 0.321508 0.226265
vt 0.306386 0.193077
vt 0.195313 0.468750
vt 0.296875 0.937500
vt 0.007813 0.718750
vt 0.007813 0.492188
vt 0.007813 0.882813
vt 0.007813 0.984375
vt 0.837934 0.471041
vt 0.007813 0.359375
vt 0.007813 0.164063
vt 0.023438 0.101563
vt 0.054688 0.171875
vt 0.070313 0.054688
vt 0.089844 0.132813
vt 0.132813 0.046875
vt 0.140625 0.125000
vt 0.175781 0.066406
vt 0.179688 0.203125
vt 0.218750 0.195313
vt 0.218750 0.085938
vt 0.263085 0.171875
vt 0.228296 0.359375
vt 0.263085 0.359375
vt 0.046875 0.359375
vt 0.176112 0.359375
vt 0.202204 0.359375
vt 0.921875 0.742188
vt 0.859375 0.507813
vt 0.858259 0.742188
vt 0.945313 0.562500
vt 0.984375 0.742188
vt 0.945313 0.914063
vt 0.859375 0.960938
vt 0.953125 0.640625
vt 0.875154 0.605278
vt 0.875386 0.681163
vt 0.875000 0.554688
vt 0.875618 0.757048
vt 0.953125 0.867188
vt 0.875850 0.832933
vt 0.876081 0.908818
vt 0.876236 0.959408
vt 0.062500 0.031250
vt 0.937500 0.031250
vt 0.500000 0.937500
vt 0.500000 0.031250
vt 0.500000 0.968750
vt 0.000000 -0.359375
vt 0.500000 -0.359375
vt 1.000000 -0.359375
vt 0.500000 -0.343750
vt 0.000000 -0.343750
vt 1.000000 -0.343750
vt 1.000000 0.108819
vt 0.000000 0.108819
vt 0.500000 0.108819
vt 0.500000 0.000000
vt 0.000000 0.000000
vt 1.000000 0.000000
vt 0.531250 0.109375
vt 0.031250 0.109375
vt 0.531250 0.953125
vt 0.968750 0.109375
vt 0.000000 0.043989
vt 1.000000 0.043989
vt 0.531250 0.968750
vt 0.531250 0.043989
vt 1.000000 0.015069
vt 0.500000 0.015069
vt 0.000000 0.015069
vt 0.000000 -0.406250
vt 0.531250 -0.406250
vt 1.000000 -0.406250
# 118 texture coordinates

vn 0.000001 -0.477516 0.878623
vn -0.331852 0.096371 0.938396
vn 0.000001 0.583718 0.811957
vn 0.331853 0.096371 0.938396
vn 0.523920 0.270317 0.807735
vn 0.000001 0.430054 0.902803
vn 0.376076 -0.658246 -0.652134
vn 0.413663 -0.279026 -0.866618
vn 0.692770 -0.387644 -0.608113
vn -0.000000 -0.529703 -0.848183
vn 0.043337 -0.780949 -0.623089
vn -0.307250 -0.688887 -0.656530
vn -0.413663 -0.279025 -0.866618
vn -0.635383 -0.467735 -0.614421
vn -0.757362 -0.052502 -0.650881
vn -0.418309 0.252122 -0.872612
vn -0.704216 0.347148 -0.619329
vn -0.944024 -0.018600 -0.329353
vn -0.799075 -0.501063 -0.332288
vn -0.438235 -0.831157 -0.342241
vn 0.007144 -0.937129 -0.348910
vn 0.448484 -0.824081 -0.346053
vn 0.801654 -0.494190 -0.336345
vn 0.944234 -0.015090 -0.328929
vn 0.758281 0.027739 -0.651338
vn 0.418308 0.252122 -0.872613
vn 0.651794 0.422207 -0.630004
vn 0.325307 0.641117 -0.695086
vn -0.000000 0.486667 -0.873588
vn -0.047868 0.738928 -0.672082
vn -0.396939 0.608168 -0.687438
vn -0.823172 0.448691 -0.347943
vn -0.997166 0.021607 0.072067
vn -0.838665 -0.541376 0.059601
vn -0.495638 -0.866392 0.060889
vn 0.023635 -0.999691 0.007674
vn 0.452523 -0.889905 0.057370
vn 0.851849 -0.522628 0.034838
vn 0.997409 -0.071930 -0.001502
vn 0.916125 0.399227 0.036509
vn 0.821966 0.455966 -0.341274
vn 0.474945 0.797380 -0.372307
vn -0.009301 0.920459 -0.390728
vn -0.486132 0.787665 -0.378496
vn -0.852228 0.523016 -0.012721
vn -0.805370 0.427224 0.410924
vn -0.524199 0.851464 0.014975
vn -0.001652 0.999990 0.004060
vn 0.557604 0.828800 0.046575
vn 0.768789 0.463698 0.440395
vn 0.911264 0.032770 0.410516
vn 0.722302 -0.575306 0.383800
vn 0.409149 -0.836519 0.364463
vn -0.034315 -0.914578 0.402952
vn -0.476288 -0.790255 0.385547
vn -0.780167 -0.508935 0.363765
vn -0.889348 0.047029 0.454806
vn -0.616346 0.353602 0.703621
vn -0.457077 0.716214 0.527369
vn 0.056188 0.956593 0.285959
vn 0.477829 0.670318 0.567762
vn 0.616347 0.353602 0.703621
vn 0.746863 0.508057 0.429039
vn 0.876860 0.040076 0.479072
vn 0.842679 -0.375747 0.385624
vn 0.567573 -0.774466 0.279398
vn 0.318702 -0.889483 0.327488
vn 0.000000 -0.932612 0.360881
vn -0.318702 -0.889483 0.327488
vn -0.567573 -0.774466 0.279398
vn -0.842679 -0.375747 0.385624
vn -0.876860 0.040076 0.479072
vn -0.746863 0.508057 0.429039
vn -0.490755 0.706126 0.510437
vn 0.000006 0.495937 0.868359
vn 0.000005 0.867912 0.496719
vn 0.490760 0.706123 0.510435
vn 0.000004 0.795214 0.606329
vn -0.000000 -0.007302 -0.999973
vn 0.000000 -0.956159 0.292850
vn -0.479328 -0.761225 0.436785
vn -0.796805 -0.441208 0.412841
vn -0.766979 -0.053987 0.639397
vn -0.448425 -0.414445 0.791928
vn -0.658740 0.531857 0.532157
vn 0.000004 0.992151 0.125047
vn 0.658743 0.531854 0.532155
vn 0.448426 -0.414446 0.791927
vn 0.766979 -0.053987 0.639397
vn 0.796805 -0.441208 0.412841
vn 0.479329 -0.761225 0.436785
vn 0.000001 -0.468186 0.883630
vn -0.523919 0.270318 0.807736
vn 0.000003 -0.225076 0.974341
vn 0.000004 0.672190 0.740379
vn 0.994400 0.053337 0.091230
vn 0.960596 -0.236939 -0.145312
vn 0.889960 0.038249 -0.454433
vn 0.890790 -0.260087 0.372623
vn 0.837039 0.054297 0.544442
vn 0.864888 0.365943 0.343590
vn 0.927923 0.325740 -0.181251
vn 0.975574 -0.218051 0.026633
vn -0.000001 0.081787 -0.996650
vn -0.000000 0.048364 -0.998830
vn 0.000005 -0.920289 0.391239
vn -0.975572 -0.218061 0.026633
vn 0.000000 0.000000 -1.000000
vn -0.975574 0.218052 0.026633
vn -0.000000 -0.048364 -0.998830
vn 0.000000 -0.081787 -0.996650
vn -0.000004 0.920289 0.391239
vn 0.975572 0.218061 0.026632
vn -0.994400 0.053337 0.091230
vn -0.960596 -0.236939 -0.145312
vn -0.890790 -0.260087 0.372623
vn -0.889960 0.038249 -0.454433
vn -0.927923 0.325740 -0.181251
vn -0.864888 0.365943 0.343590
vn -0.837039 0.054297 0.544442
vn 0.105077 0.686788 0.719223
vn 0.029053 -0.968142 0.248709
vn 0.894741 0.436307 0.095263
vn 0.460215 0.297852 -0.836353
vn -0.893171 0.439524 0.095205
vn -0.032453 -0.968036 0.248703
vn -0.102667 0.687161 0.719214
vn -0.459084 0.299481 -0.836393
vn -0.402841 0.842282 -0.358161
vn 0.939700 0.021333 0.341333
vn -0.037727 0.108568 -0.993373
vn -0.300254 -0.786809 -0.539239
vn 0.038073 0.108436 -0.993374
vn -0.939577 0.024611 0.341452
vn 0.405753 0.840870 -0.358194
vn 0.297461 -0.787855 -0.539260
vn -0.296307 -0.413064 0.861151
vn 0.527733 -0.849409 0.001535
vn 0.588704 0.808347 -0.001692
vn -0.973101 0.230379 -0.000447
vn -0.295823 -0.416987 -0.859424
vn -0.330023 0.445222 0.832383
vn -0.990816 -0.135217 0.001064
vn 0.567861 -0.823122 0.001871
vn 0.231524 0.972827 -0.001958
vn -0.330497 0.441506 -0.834173
vn -0.346134 -0.450245 -0.823086
vn -0.613346 -0.780846 0.118686
vn -0.289479 0.577013 -0.763713
vn 0.969959 -0.082208 0.228957
vn 0.291395 0.575910 -0.763817
vn 0.610409 -0.783181 0.118441
vn 0.344262 -0.451537 -0.823164
vn -0.970163 -0.078460 0.229407
vn -0.778137 0.620888 0.094869
vn 0.131717 -0.753614 0.643985
vn 0.390921 0.908952 0.144869
vn -0.532599 -0.095922 -0.840915
vn -0.504110 0.821495 -0.266494
vn -0.526128 -0.037095 -0.849596
vn -0.525145 0.470128 0.709367
vn 0.983817 0.170228 -0.055916
vn -0.276203 -0.551515 -0.787110
vn -0.594342 0.798972 0.091660
vn -0.255468 0.485547 -0.836050
vn 0.974161 0.097120 0.203908
vn -0.526606 -0.057074 0.848192
vn 0.984093 0.167548 0.059072
vn -0.507870 0.813667 0.282867
vn -0.525450 0.483484 -0.700104
vn 0.644018 0.144002 -0.751335
vn -0.387652 0.910340 0.144938
vn -0.134332 -0.753095 0.644052
vn 0.780345 0.618064 0.095176
vn 0.532365 -0.097759 -0.840851
vn 0.256920 0.484705 -0.836094
vn -0.973761 0.100226 0.204316
vn 0.596960 0.797042 0.091453
vn 0.274162 -0.552414 -0.787194
vn -0.521476 -0.713082 -0.468591
vn -0.518179 0.855022 -0.020676
vn -0.453108 0.247734 -0.856342
vn 0.979143 0.054305 -0.195779
vn -0.643449 0.146465 -0.751347
# 184 normals

g mesh0472
usemtl mesh0472mat
s 1
f 3/1/1 2/2/2 1/3/3
f 4/2/4 3/1/1 1/3/3
f 5/4/5 4/5/4 1/6/3
f 6/7/6 5/4/5 1/6/3
f 9/8/7 8/9/8 7/10/9
f 9/8/7 10/11/10 8/9/8
f 11/12/11 10/11/10 9/8/7
f 12/8/12 10/11/10 11/12/11
f 12/8/12 13/9/13 10/11/10
f 14/10/14 13/9/13 12/8/12
f 15/13/15 13/9/13 14/10/14
f 15/13/15 16/14/16 13/9/13
f 15/13/15 17/15/17 16/14/16
f 15/13/15 18/16/18 17/15/17
f 15/13/15 19/17/19 18/16/18
f 14/10/14 19/17/19 15/13/15
f 14/10/14 20/18/20 19/17/19
f 12/8/12 20/18/20 14/10/14
f 12/8/12 21/19/21 20/18/20
f 11/12/11 21/19/21 12/8/12
f 11/12/11 22/18/22 21/19/21
f 9/8/7 22/18/22 11/12/11
f 9/8/7 23/17/23 22/18/22
f 7/10/9 23/17/23 9/8/7
f 7/10/9 24/16/24 23/17/23
f 7/10/9 25/13/25 24/16/24
f 8/9/8 25/13/25 7/10/9
f 26/14/26 25/13/25 8/9/8
f 26/14/26 27/15/27 25/13/25
f 26/14/26 28/20/28 27/15/27
f 29/21/29 28/20/28 26/14/26
f 29/21/29 30/22/30 28/20/28
f 29/21/29 31/20/31 30/22/30
f 16/14/16 31/20/31 29/21/29
f 17/15/17 31/20/31 16/14/16
f 17/15/17 32/23/32 31/20/31
f 18/16/18 32/23/32 17/15/17
f 18/16/18 33/24/33 32/23/32
f 18/16/18 34/25/34 33/24/33
f 19/17/19 34/25/34 18/16/18
f 19/17/19 35/26/35 34/25/34
f 20/18/20 35/26/35 19/17/19
f 20/18/20 36/27/36 35/26/35
f 21/19/21 36/27/36 20/18/20
f 21/19/21 37/26/37 36/27/36
f 22/18/22 37/26/37 21/19/21
f 22/18/22 38/25/38 37/26/37
f 23/17/23 38/25/38 22/18/22
f 23/17/23 39/24/39 38/25/38
f 24/16/24 39/24/39 23/17/23
f 24/16/24 40/28/40 39/24/39
f 24/16/24 41/23/41 40/28/40
f 25/13/25 41/23/41 24/16/24
f 27/15/27 41/23/41 25/13/25
f 27/15/27 42/29/42 41/23/41
f 28/20/28 42/29/42 27/15/27
f 28/20/28 43/30/43 42/29/42
f 30/22/30 43/30/43 28/20/28
f 30/22/30 44/29/44 43/30/43
f 31/20/31 44/29/44 30/22/30
f 32/23/32 44/29/44 31/20/31
f 32/23/32 45/28/45 44/29/44
f 33/24/33 45/28/45 32/23/32
f 46/31/46 45/28/45 33/24/33
f 47/32/47 45/28/45 46/31/46
f 47/32/47 44/29/44 45/28/45
f 47/32/47 43/30/43 44/29/44
f 48/33/48 43/30/43 47/32/47
f 48/33/48 42/29/42 43/30/43
f 49/32/49 42/29/42 48/33/48
f 49/32/49 41/23/41 42/29/42
f 49/32/49 40/28/40 41/23/41
f 50/31/50 40/28/40 49/32/49
f 51/34/51 40/28/40 50/31/50
f 51/34/51 39/24/39 40/28/40
f 51/34/51 38/25/38 39/24/39
f 52/35/52 38/25/38 51/34/51
f 52/35/52 37/26/37 38/25/38
f 53/36/53 37/26/37 52/35/52
f 53/36/53 36/27/36 37/26/37
f 54/37/54 36/27/36 53/36/53
f 54/37/54 35/26/35 36/27/36
f 55/36/55 35/26/35 54/37/54
f 55/36/55 34/25/34 35/26/35
f 56/35/56 34/25/34 55/36/55
f 56/35/56 33/24/33 34/25/34
f 57/34/57 33/24/33 56/35/56
f 57/34/57 46/31/46 33/24/33
f 58/38/58 46/31/46 57/34/57
f 59/39/59 46/31/46 58/38/58
f 59/39/59 47/32/47 46/31/46
f 59/39/59 48/33/48 47/32/47
f 60/40/60 48/33/48 59/39/59
f 60/40/60 49/32/49 48/33/48
f 61/39/61 49/32/49 60/40/60
f 61/39/61 50/31/50 49/32/49
f 62/38/62 50/31/50 61/39/61
f 62/38/62 51/34/51 50/31/50
f 63/41/63 51/34/51 62/38/62
f 64/42/64 51/34/51 63/41/63
f 65/43/65 51/34/51 64/42/64
f 65/43/65 52/35/52 51/34/51
f 66/44/66 52/35/52 65/43/65
f 66/44/66 53/36/53 52/35/52
f 67/45/67 53/36/53 66/44/66
f 67/45/67 54/37/54 53/36/53
f 68/46/68 54/37/54 67/45/67
f 69/45/69 54/37/54 68/46/68
f 69/45/69 55/36/55 54/37/54
f 70/44/70 55/36/55 69/45/69
f 70/44/70 56/35/56 55/36/55
f 71/43/71 56/35/56 70/44/70
f 71/43/71 57/34/57 56/35/56
f 72/42/72 57/34/57 71/43/71
f 73/41/73 57/34/57 72/42/72
f 73/41/73 58/38/58 57/34/57
f 74/47/74 58/38/58 73/41/73
f 74/47/74 59/48/59 58/38/58
f 74/47/74 75/49/75 59/48/59
f 76/50/76 75/49/75 74/47/74
f 77/47/77 75/49/75 76/50/76
f 77/47/77 61/48/61 75/49/75
f 77/47/77 62/38/62 61/48/61
f 63/41/63 62/38/62 77/47/77
f 78/51/78 59/48/59 75/49/75
f 78/51/78 60/52/60 59/48/59
f 78/51/78 61/48/61 60/52/60
f 75/49/75 61/48/61 78/51/78
f 79/53/79 16/14/16 29/21/29
f 79/53/79 13/9/13 16/14/16
f 79/53/79 10/11/10 13/9/13
f 79/53/79 8/9/8 10/11/10
f 79/53/79 26/14/26 8/9/8
f 29/21/29 26/14/26 79/53/79
f 80/54/80 68/55/68 67/56/67
f 80/54/80 69/56/69 68/55/68
f 81/57/81 69/56/69 80/54/80
f 81/57/81 70/58/70 69/56/69
f 82/59/82 70/58/70 81/57/81
f 82/59/82 71/60/71 70/58/70
f 83/61/83 71/60/71 82/59/82
f 83/61/83 72/62/72 71/60/71
f 84/63/84 72/62/72 83/61/83
f 85/64/85 72/62/72 84/63/84
f 85/64/85 73/65/73 72/62/72
f 85/64/85 74/66/74 73/65/73
f 86/67/86 74/66/74 85/64/85
f 86/67/86 76/68/76 74/66/74
f 86/67/86 77/66/77 76/68/76
f 87/64/87 77/66/77 86/67/86
f 87/64/87 63/65/63 77/66/77
f 87/64/87 64/62/64 63/65/63
f 88/63/88 64/62/64 87/64/87
f 89/61/89 64/62/64 88/63/88
f 89/61/89 65/60/65 64/62/64
f 90/59/90 65/60/65 89/61/89
f 90/59/90 66/58/66 65/60/65
f 91/57/91 66/58/66 90/59/90
f 91/57/91 67/56/67 66/58/66
f 91/57/91 80/54/80 67/56/67
f 92/69/92 80/54/80 91/57/91
f 92/69/92 81/57/81 80/54/80
f 93/4/93 81/57/81 92/69/92
f 93/4/93 82/59/82 81/57/81
f 93/4/93 83/61/83 82/59/82
f 2/5/2 83/61/83 93/4/93
f 2/5/2 84/63/84 83/61/83
f 3/6/1 84/63/84 2/5/2
f 94/70/94 84/63/84 3/6/1
f 94/70/94 85/64/85 84/63/84
f 95/71/95 85/64/85 94/70/94
f 95/71/95 86/67/86 85/64/85
f 95/71/95 87/64/87 86/67/86
f 94/70/94 87/64/87 95/71/95
f 94/70/94 88/63/88 87/64/87
f 3/6/1 88/63/88 94/70/94
f 4/5/4 88/63/88 3/6/1
f 4/5/4 89/61/89 88/63/88
f 5/4/5 89/61/89 4/5/4
f 5/4/5 90/59/90 89/61/89
f 5/4/5 91/57/91 90/59/90
f 5/4/5 92/69/92 91/57/91
f 6/7/6 92/69/92 5/4/5
f 6/7/6 93/4/93 92/69/92
f 1/6/3 93/4/93 6/7/6
f 1/6/3 2/5/2 93/4/93
f 98/72/96 97/73/97 96/74/98
f 98/72/96 99/75/99 97/73/97
f 98/72/96 100/76/100 99/75/99
f 98/72/96 101/77/101 100/76/100
f 98/72/96 102/78/102 101/77/101
f 96/74/98 102/78/102 98/72/96
f 105/79/103 104/80/104 103/81/105
f 105/79/103 106/82/106 104/80/104
f 107/79/107 106/82/106 105/79/103
f 107/79/107 104/80/104 106/82/106
f 107/79/107 103/81/105 104/80/104
f 107/79/107 108/83/108 103/81/105
f 109/84/109 108/83/108 107/79/107
f 109/84/109 110/85/110 108/83/108
f 109/84/109 111/86/111 110/85/110
f 109/84/109 112/87/112 111/86/111
f 113/84/113 112/87/112 109/84/109
f 113/84/113 111/86/111 112/87/112
f 113/84/113 110/85/110 111/86/111
f 113/84/113 108/83/108 110/85/110
f 105/79/103 108/83/108 113/84/113
f 105/79/103 103/81/105 108/83/108
f 116/72/114 115/73/115 114/75/116
f 116/72/114 117/74/117 115/73/115
f 116/72/114 118/78/118 117/74/117
f 116/72/114 119/77/119 118/78/118
f 116/72/114 120/76/120 119/77/119
f 114/75/116 120/76/120 116/72/114
# 214 triangles in group

g mesh0473
usemtl mesh0473mat
f 123/88/121 122/89/122 121/90/123
f 122/89/122 124/91/124 121/90/123
f 124/91/124 123/88/121 121/90/123
f 127/90/125 126/89/126 125/88/127
f 127/90/125 128/91/128 126/89/126
f 127/90/125 125/88/127 128/91/128
f 131/91/129 130/89/130 129/90/131
f 130/89/130 132/88/132 129/90/131
f 132/88/132 131/91/129 129/90/131
f 135/90/133 134/89/134 133/91/135
f 135/90/133 136/88/136 134/89/134
f 135/90/133 133/91/135 136/88/136
f 139/88/137 138/90/138 137/89/139
f 140/90/140 139/88/137 137/89/139
f 137/89/139 138/90/138 141/91/141
f 140/90/140 137/89/139 141/91/141
f 141/91/141 138/90/138 139/88/137
f 140/90/140 141/91/141 139/88/137
f 144/88/142 143/90/143 142/89/144
f 145/90/145 144/88/142 142/89/144
f 142/89/144 143/90/143 146/91/146
f 145/90/145 142/89/144 146/91/146
f 146/91/146 143/90/143 144/88/142
f 145/90/145 146/91/146 144/88/142
# 24 triangles in group

g mesh0474
usemtl mesh0474mat
f 149/92/147 148/93/148 147/94/149
f 149/92/147 147/94/149 150/95/150
f 149/92/147 150/95/150 148/93/148
f 153/96/151 152/97/152 151/92/153
f 154/98/154 153/96/151 151/92/153
f 152/97/152 154/98/154 151/92/153
f 157/92/155 156/99/156 155/100/157
f 157/92/155 158/101/158 156/99/156
f 157/92/155 155/100/157 158/101/158
f 161/92/159 160/102/160 159/103/161
f 161/92/159 159/103/161 162/104/162
f 161/92/159 162/104/162 160/102/160
f 165/105/163 164/106/164 163/107/165
f 166/108/166 165/105/163 163/107/165
f 164/106/164 166/108/166 163/107/165
f 169/109/167 168/110/168 167/111/169
f 168/110/168 170/112/170 167/111/169
f 170/112/170 169/109/167 167/111/169
f 156/113/156 158/114/158 171/92/171
f 158/114/158 155/115/157 171/92/171
f 174/100/172 173/99/173 172/92/174
f 173/99/173 175/101/175 172/92/174
f 175/101/175 174/100/172 172/92/174
f 178/107/176 177/108/177 176/106/178
f 178/107/176 179/105/179 177/108/177
f 178/107/176 176/106/178 179/105/179
f 182/116/180 181/117/181 180/111/182
f 183/118/183 182/116/180 180/111/182
f 181/117/181 183/118/183 180/111/182
f 155/115/157 156/113/156 171/92/171
f 173/113/173 174/115/172 184/92/184
f 184/92/184 175/114/175 173/113/173
f 174/115/172 175/114/175 184/92/184
# 33 triangles in group

# 271 triangles total

